<svg width="20" height="16" viewBox="0 0 20 16" fill="none" xmlns="http://www.w3.org/2000/svg">
<path d="M19.9994 7.54412L7.00649 15.0424L0.0122458 10.9808L0.00390625 7.50247L12.9926 0L19.9869 4.06575L19.9994 7.54412Z" fill="#5EC363"/>
<path d="M0 7.50195L0.00985866 10.9794L7.00356 15.0437L6.9937 11.5662L0 7.50195Z" fill="#59B14A"/>
<path d="M6.99426 11.5664L7.00412 15.0438L19.996 7.54293L19.9862 4.06547L6.99426 11.5664Z" fill="#4CA950"/>
<path d="M0 7.50235L6.9937 11.5666L19.9856 4.06576L12.9919 0.00146484L0 7.50235Z" fill="#78E75A"/>
<path d="M13.0061 3.14129C12.5703 3.39289 12.568 3.79889 13.001 4.05049C13.4315 4.30067 14.1324 4.30068 14.5682 4.04908C15.0015 3.7989 15.0062 3.39147 14.5757 3.14129C14.1428 2.88969 13.4394 2.89112 13.0061 3.14129Z" fill="#5EC363"/>
<path d="M7.9209 4.5808C6.77201 5.24411 6.76347 6.32344 7.90981 6.98962C9.05369 7.65437 10.9171 7.65295 12.066 6.98964C13.2198 6.32346 13.2259 5.24557 12.082 4.58081C10.9356 3.91463 9.07475 3.91462 7.9209 4.5808Z" fill="#5EC363"/>
<path d="M11.8892 1.58873C12.4944 1.9404 13.4766 1.94041 14.0833 1.59017L17.2492 3.43003C16.6426 3.78027 16.6394 4.34924 17.2446 4.70092L8.10293 9.97885C7.49778 9.62717 6.51551 9.62716 5.90639 9.97883L2.74042 8.13897C3.34953 7.7873 3.35273 7.21833 2.74758 6.86666L11.8892 1.58873ZM12.0661 6.98964C13.22 6.32346 13.226 5.24557 12.0821 4.58081C10.9358 3.91463 9.07492 3.91462 7.92107 4.5808C6.77218 5.24411 6.76363 6.32344 7.90997 6.98962C9.05385 7.65437 10.9172 7.65295 12.0661 6.98964ZM6.98378 8.42776C7.41957 8.17616 7.42186 7.77016 6.99136 7.51998C6.55841 7.26838 5.85748 7.26837 5.42169 7.51997C4.98838 7.77014 4.98363 8.17758 5.41658 8.42918C5.84708 8.67936 6.55047 8.67793 6.98378 8.42776ZM14.568 4.04903C15.0013 3.79886 15.006 3.39143 14.5755 3.14125C14.1426 2.88965 13.4392 2.89107 13.0059 3.14124C12.5701 3.39284 12.5678 3.79884 13.0008 4.05045C13.4313 4.30063 14.1322 4.30063 14.568 4.04903Z" fill="#72D561"/>
<path d="M5.42117 7.52C4.98786 7.77017 4.9831 8.1776 5.41605 8.4292C5.84655 8.67938 6.54995 8.67796 6.98326 8.42778C7.41905 8.17618 7.42133 7.77018 6.99083 7.52C6.55788 7.2684 5.85695 7.2684 5.42117 7.52Z" fill="#5EC363"/>
<path d="M11.2703 6.05303C11.3206 5.96633 11.3342 5.88877 11.3068 5.81121C11.2795 5.73362 11.2202 5.6652 11.1198 5.60588C10.9966 5.53743 10.8688 5.49638 10.7319 5.49181C10.5996 5.48267 10.4718 5.49181 10.3441 5.52375C10.2392 5.54656 10.1114 5.58761 9.96994 5.63325L9.43153 5.32299C9.55927 5.2591 9.68705 5.20892 9.82393 5.1724C9.85587 5.16327 9.87868 5.15416 9.89695 5.14503C9.938 5.12222 9.9517 5.09028 9.94713 5.05833C9.94256 5.02639 9.91976 4.99901 9.88781 4.98077C9.81936 4.9397 9.73266 4.93056 9.64597 4.9534C9.47261 4.99901 9.30376 5.0629 9.13493 5.1496L8.99349 5.06747C8.96154 5.0492 8.92049 5.04009 8.87485 5.04009C8.82923 5.04009 8.78818 5.0492 8.75624 5.06747C8.7243 5.08571 8.70603 5.10852 8.70603 5.13589C8.70603 5.16327 8.7243 5.18608 8.75624 5.20435L8.90225 5.29104C8.80642 5.36404 8.7334 5.43706 8.70149 5.51462C8.65584 5.59674 8.65584 5.67887 8.69235 5.75189C8.7243 5.82945 8.78818 5.89334 8.88398 5.94809C8.99349 6.01195 9.11669 6.04846 9.249 6.0576C9.37678 6.06673 9.50452 6.0576 9.6323 6.03022C9.73723 6.00741 9.86501 5.9709 9.99732 5.92528L10.5175 6.22642C10.3715 6.29941 10.2118 6.35416 10.0338 6.39067C10.0065 6.39981 9.97908 6.40894 9.95627 6.42262C9.91519 6.44543 9.89238 6.47737 9.89695 6.50931C9.89695 6.54125 9.91976 6.56863 9.96081 6.59144C9.98818 6.60971 10.0247 6.62338 10.0703 6.62795L10.1981 6.61882C10.4171 6.56863 10.627 6.49564 10.8186 6.40438L10.9601 6.4865C10.9966 6.50931 11.0377 6.51845 11.0833 6.51845C11.1289 6.51388 11.1654 6.50474 11.2019 6.4865C11.2339 6.46823 11.2521 6.44543 11.2521 6.41805C11.2475 6.39067 11.2339 6.36787 11.2019 6.34962L11.0559 6.2675C11.1563 6.19447 11.2293 6.12602 11.2703 6.05303ZM9.18515 5.75643C9.12126 5.71538 9.08932 5.67431 9.09845 5.61955C9.11213 5.56937 9.14864 5.51918 9.20796 5.469L9.66881 5.73819C9.56384 5.77014 9.47261 5.79294 9.39959 5.79751C9.31746 5.80665 9.24447 5.79294 9.18515 5.75643ZM10.7502 6.08954L10.2985 5.82489C10.4171 5.78381 10.5175 5.761 10.595 5.75189C10.6772 5.74276 10.7365 5.74733 10.7867 5.77927C10.8825 5.83402 10.9783 5.92528 10.7502 6.08954Z" fill="black"/>
<path d="M4.80469 4.72886L11.7984 8.79315C13.3042 9.19457 14.3981 8.4479 15.1827 6.8392L8.18904 2.7749L4.80469 4.72886Z" fill="#FFD06C"/>
<path d="M11.7988 8.79307L11.8087 12.2705L15.193 10.3166L15.1832 6.83911L11.7988 8.79307Z" fill="#FFD06C"/>
<path d="M5.38672 4.39347L7.60952 3.11011L14.6031 7.17443C14.0727 8.76739 13.4152 9.65736 12.3803 8.45779L5.38672 4.39347Z" fill="#F8F9FE"/>
<path d="M12.377 8.45743L14.5998 7.17407L14.6098 10.6514L12.387 11.9348L12.377 8.45743Z" fill="#F3F1FC"/>
</svg>
